<svg xmlns="http://www.w3.org/2000/svg" viewBox="0 0 720 480" role="img" aria-label="Usucha Matcha">
  <defs>
    <pattern id="grid" width="36" height="36" patternUnits="userSpaceOnUse">
      <path d="M36 0H0v36" fill="none" stroke="#6b814f" stroke-opacity=".08" stroke-width="1"/>
    </pattern>
  </defs>
  <rect width="720" height="480" fill="#edf5dc"/>
  <rect width="720" height="480" fill="url(#grid)"/>
  <circle cx="116" cy="92" r="62" fill="#d2bd67" opacity=".18"/>
  <circle cx="620" cy="392" r="96" fill="#4f7d3a" opacity=".12"/>
  <path d="M96 390C172 320 228 316 294 366s132 46 210-24 118-54 160-18" fill="none" stroke="#fffdf4" stroke-width="18" stroke-linecap="round" opacity=".42"/>
  <ellipse cx="360" cy="260" rx="138" ry="46" fill="#f7f3df" opacity=".95"/><path d="M230 252h260c-16 95-62 137-130 137s-114-42-130-137z" fill="#4f7d3a"/><ellipse cx="360" cy="252" rx="130" ry="36" fill="#dfeec4"/><path d="M272 248c50-24 126-24 176 0" fill="none" stroke="#fffdf4" stroke-width="8" stroke-linecap="round" opacity=".8"/>
  <text x="56" y="78" font-family="Georgia, 'Times New Roman', serif" font-size="32" font-weight="700" fill="#263826">Usucha Matcha</text>
  <text x="56" y="112" font-family="Arial, sans-serif" font-size="15" fill="#52624d">Minicafe matcha selection</text>
</svg>
