<svg xmlns="http://www.w3.org/2000/svg" viewBox="0 0 720 480" role="img" aria-label="Matcha Cheesecake">
  <defs>
    <pattern id="grid" width="36" height="36" patternUnits="userSpaceOnUse">
      <path d="M36 0H0v36" fill="none" stroke="#6b814f" stroke-opacity=".08" stroke-width="1"/>
    </pattern>
  </defs>
  <rect width="720" height="480" fill="#fff2d7"/>
  <rect width="720" height="480" fill="url(#grid)"/>
  <circle cx="116" cy="92" r="62" fill="#e2c47b" opacity=".18"/>
  <circle cx="620" cy="392" r="96" fill="#88a64f" opacity=".12"/>
  <path d="M96 390C172 320 228 316 294 366s132 46 210-24 118-54 160-18" fill="none" stroke="#fffdf4" stroke-width="18" stroke-linecap="round" opacity=".42"/>
  <path d="M238 308h244v70H238z" fill="#f9e9d0"/><path d="M238 250h244v66H238z" fill="#88a64f"/><path d="M238 226h244v38H238z" fill="#fffaf0"/><circle cx="304" cy="225" r="17" fill="#e2c47b"/><circle cx="380" cy="225" r="17" fill="#e2c47b"/><path d="M232 380h256" stroke="#9a6f44" stroke-width="8" stroke-linecap="round" opacity=".45"/>
  <text x="56" y="78" font-family="Georgia, 'Times New Roman', serif" font-size="32" font-weight="700" fill="#263826">Matcha Cheesecake</text>
  <text x="56" y="112" font-family="Arial, sans-serif" font-size="15" fill="#52624d">Minicafe matcha selection</text>
</svg>
