<svg xmlns="http://www.w3.org/2000/svg" viewBox="0 0 720 480" role="img" aria-label="Iced Matcha Milk">
  <defs>
    <pattern id="grid" width="36" height="36" patternUnits="userSpaceOnUse">
      <path d="M36 0H0v36" fill="none" stroke="#6b814f" stroke-opacity=".08" stroke-width="1"/>
    </pattern>
  </defs>
  <rect width="720" height="480" fill="#e5f2ee"/>
  <rect width="720" height="480" fill="url(#grid)"/>
  <circle cx="116" cy="92" r="62" fill="#b8d8e5" opacity=".18"/>
  <circle cx="620" cy="392" r="96" fill="#6fa152" opacity=".12"/>
  <path d="M96 390C172 320 228 316 294 366s132 46 210-24 118-54 160-18" fill="none" stroke="#fffdf4" stroke-width="18" stroke-linecap="round" opacity=".42"/>
  <path d="M292 152h136l-18 250H310z" fill="#f8ffff" opacity=".88"/><path d="M306 236h108l-10 138h-88z" fill="#6fa152"/><circle cx="328" cy="204" r="14" fill="#d8eef3"/><circle cx="382" cy="196" r="12" fill="#d8eef3"/><path d="M304 226c36-16 77-16 112 0" fill="none" stroke="#fff" stroke-width="7" stroke-linecap="round"/>
  <text x="56" y="78" font-family="Georgia, 'Times New Roman', serif" font-size="32" font-weight="700" fill="#263826">Iced Matcha Milk</text>
  <text x="56" y="112" font-family="Arial, sans-serif" font-size="15" fill="#52624d">Minicafe matcha selection</text>
</svg>
